<svg viewBox="0 0 24 24" xmlns="http://www.w3.org/2000/svg"><path d="m23.644 5.43a.364.364 0 0 1 .014.099v5.15c0 .135-.073.26-.189.326l-4.323 2.49v4.934a.378.378 0 0 1 -.188.326l-9.027 5.195a.316.316 0 0 1 -.066.027c-.008.002-.016.008-.024.01a.348.348 0 0 1 -.192 0c-.011-.002-.02-.008-.029-.012-.021-.008-.043-.014-.063-.025l-9.023-5.195a.376.376 0 0 1 -.189-.326v-15.455c0-.033.005-.066.014-.098.003-.012.01-.021.014-.032a.369.369 0 0 1 .023-.058c.004-.013.015-.022.023-.033.012-.016.021-.031.033-.045.012-.01.025-.018.037-.027.014-.012.027-.024.041-.034h.001l4.513-2.597a.375.375 0 0 1 .375 0l4.512 2.597h.002c.015.01.027.021.041.033l.037.027c.013.014.021.029.033.045.008.011.02.021.025.033.011.019.017.038.024.058.003.011.011.021.013.032.01.031.014.064.014.098v9.652l3.76-2.164v-4.934c0-.033.005-.066.014-.098.003-.011.009-.021.013-.032a.487.487 0 0 1 .024-.059c.007-.012.018-.021.025-.033.012-.015.021-.03.033-.043.012-.012.025-.02.037-.028.014-.011.026-.023.041-.032h.001l4.513-2.598a.375.375 0 0 1 .375 0l4.513 2.598c.016.01.027.021.042.031.012.01.025.018.036.028.013.014.022.029.034.044.008.012.019.021.024.033.011.02.018.039.024.059a.16.16 0 0 1 .015.033zm-.74 5.032v-4.283l-1.578.908-2.182 1.256v4.283zm-4.511 7.75v-4.287l-2.146 1.225-6.127 3.498v4.326zm-17.298-14.588v14.588l8.273 4.762v-4.326l-4.322-2.445-.002-.003h-.002c-.014-.01-.025-.021-.04-.031-.011-.01-.024-.018-.035-.027l-.001-.002c-.013-.012-.021-.025-.031-.039-.01-.012-.021-.023-.028-.037h-.002c-.008-.014-.013-.031-.02-.047-.006-.016-.014-.027-.018-.043a.49.49 0 0 1 -.008-.057c-.002-.014-.006-.027-.006-.041v-10.087l-2.18-1.257-1.578-.908zm4.136-2.814-3.76 2.164 3.76 2.164 3.758-2.164zm1.956 13.505 2.182-1.256v-9.435l-1.58.909-2.182 1.256v9.435zm11.582-10.951-3.76 2.164 3.76 2.163 3.759-2.164zm-.376 4.979-2.182-1.256-1.579-.908v4.283l2.182 1.256 1.579.908zm-8.65 9.654 5.514-3.148 2.756-1.572-3.757-2.163-4.324 2.489-3.941 2.27z"/></svg>